# xmcd
#
# Track frame offsets:
#  150
#  19640
#  41637
#  56037
#  85790
#  103102
#  124115
#  140765
#
# Disc length: 2219 seconds
#
# Revision: 5
# Processed by: cddbd v1.5.1PL0 Copyright (c) Steve Scherf et al.
# Submitted via: AltoMP3_Maker 3.0
#
DISCID=6a08a908
DTITLE=Muddy Waters - Electric Mud
DYEAR=1968
DGENRE=Blues
TTITLE0=I Just Want To Make Love To You
TTITLE1=I'm Your Hoochie Coochie Man
TTITLE2=Let's Spend The Night Together
TTITLE3=She's Alright
TTITLE4=Mannish Boy
TTITLE5=Herbert Harper's Free Press News
TTITLE6=Tom Cat
TTITLE7=The Same Thing
EXTD=
EXTT0=
EXTT1=
EXTT2=
EXTT3=
EXTT4=
EXTT5=
EXTT6=
EXTT7=
PLAYORDER=
